<svg data-v-b90af754="" version="1.0" xmlns="http://www.w3.org/2000/svg" xmlns:xlink="http://www.w3.org/1999/xlink" width="100%" height="100%" viewBox="0 0 340.000000 250.000000" preserveAspectRatio="xMidYMid meet" color-interpolation-filters="sRGB" class="el-tooltip" style="margin: auto;"><rect data-v-b90af754="" x="0" y="0" width="100%" height="100%" fill="#ffffff" fill-opacity="1" stroke="none" stroke-width="1px"></rect> <rect data-v-b90af754="" x="0" y="0" width="100%" height="100%" fill="url(&quot;#watermark&quot;)" fill-opacity="1" class="watermarklayer" stroke="none" stroke-width="1px"></rect> <g data-v-b90af754="" fill="#00a0e9" class="icon-svg-group iconsvg" transform="translate(56.37696838378906,85.24409103393555)" stroke="none" stroke-width="1px"><g class="iconsvg-imagesvg" transform="translate(0,0)" stroke="none" fill="#00a0e9" stroke-width="1px"><rect fill="#00a0e9" fill-opacity="0" stroke-width="2px" x="0" y="0" width="100" height="79.51009883970782" stroke="none"></rect> <svg x="0" y="0" width="100" height="79.51009883970782" class="imagesvg-svg" stroke="none" fill="#00a0e9" stroke-width="1px"><svg xmlns="http://www.w3.org/2000/svg" viewBox="0 0 116.35 92.51" stroke="none" fill="#00a0e9" stroke-width="1px"><g stroke="none" fill="#00a0e9" stroke-width="1px"><g stroke="none" fill="#00a0e9" stroke-width="1px"><path fill="#b5e1f8" d="M37.02 9.26l9.24 9.24-9.24 9.26-9.25-9.26 9.25-9.24zM37.02 64.75l9.24 9.26-9.24 9.24-9.25-9.24 9.25-9.26z" stroke="none" stroke-width="1px"></path><path fill="#00a0e9" d="M46.26 0l9.26 9.26-9.26 9.24-9.24-9.24L46.26 0zM83.28 37.01l9.26 9.24-9.26 9.26-9.25-9.26 9.25-9.24zM46.277 37.012l9.248-9.25 9.25 9.246-9.247 9.251zM27.778 37.015l9.247-9.25 9.251 9.247-9.247 9.25zM9.26 37.01l9.25 9.24-9.25 9.26L0 46.25l9.26-9.24zM27.77 55.51l9.25 9.24-9.25 9.26-9.26-9.26 9.26-9.24zM62.17 79.42h13.08v13.09H62.17z" stroke="none" stroke-width="1px"></path><path fill="#4fc2f1" d="M64.77 18.5l9.26 9.26-9.26 9.25-9.25-9.25 9.25-9.26zM27.77 18.5l9.25 9.26-9.25 9.25-9.26-9.25 9.26-9.26zM27.77 37.01l9.25 9.24-9.25 9.26-9.26-9.26 9.26-9.24zM46.26 55.51l9.26 9.24-9.26 9.26-9.24-9.26 9.24-9.24zM84.76 79.42h13.08v13.09H84.76z" stroke="none" stroke-width="1px"></path><path fill="#c7e8fa" d="M46.26 18.5l9.26 9.26-9.26 9.25-9.24-9.25 9.24-9.26zM64.77 37.01l9.26 9.24-9.26 9.26-9.25-9.26 9.25-9.24zM37.02 46.25l9.24 9.26-9.24 9.24-9.25-9.24 9.25-9.26zM97.845 83.254l9.264-9.261 9.255 9.258-9.265 9.261z" stroke="none" stroke-width="1px"></path><path fill="#9fd9f6" d="M55.52 9.26l9.25 9.24-9.25 9.26-9.26-9.26 9.26-9.24zM74.03 27.76l9.25 9.25-9.25 9.24-9.26-9.24 9.26-9.25zM46.26 37.01l9.26 9.24-9.26 9.26-9.24-9.26 9.24-9.24zM9.254 37.008l9.24-9.257 9.258 9.241-9.241 9.257zM18.51 46.25l9.26 9.26-9.26 9.24-9.25-9.24 9.25-9.26z" stroke="none" stroke-width="1px"></path><path fill="#00a0e9" d="M46.26 74.01l9.26 9.24-9.26 9.26-9.24-9.26 9.24-9.24z" stroke="none" stroke-width="1px"></path><path fill="#9fd9f6" d="M70.714 75.15l9.25-9.248 9.248 9.25-9.25 9.248z" stroke="none" stroke-width="1px"></path></g></g></svg></svg> <!----></g> <g transform="translate(100.01203155517578,23.290908813476562)" stroke="none" fill="#00a0e9" stroke-width="1px"><g class="tp-name iconsvg-namesvg" stroke="none" fill="#00a0e9" stroke-width="1px"><g stroke="none" fill="#00a0e9" stroke-width="1px"><path transform="translate(-3.4859753551531,32.361328125)" d="M22.52 0L28.79-32.36L23.28-30.43L21.23-19.87C19.83-21.70 18.21-22.83 15.79-22.83C8.37-22.83 4.80-15.85 3.77-10.56C2.81-5.58 4.06 0.53 10.75 0.53C13.60 0.53 15.91-0.78 18.33-3.04L17.94 0ZM18.95-8.14C17.49-5.91 15.24-4.31 12.74-4.31C9.37-4.31 8.67-7.75 9.29-10.93C9.97-14.36 11.83-17.92 15.61-17.92C17.90-17.92 19.56-16.53 20.18-14.52ZM44.60-21.84C43.72-22.52 42.39-22.89 41.45-22.80C38.90-22.56 37.39-21.10 35.79-19.42L35.99-22.42L31.66-22.42L27.30 0L32.38 0L35.15-14.21C36.65-16.53 38.12-17.88 40.17-17.88C40.65-17.88 41.32-17.68 42.33-17.29ZM54.90-7.05C53.61-5.37 51.33-3.86 49.38-3.86C47.39-3.86 46.59-4.90 46.96-6.81C47.70-10.66 52.87-10.68 55.62-10.68ZM58.61 0L60.87-11.57C62.02-17.51 62.34-22.76 54.22-22.76C51.41-22.76 48.50-21.98 45.71-19.75L47.56-16.20C49.92-17.62 51.60-18.21 53.53-18.21C56.46-18.21 56.83-17.08 56.25-14.13C51.06-14.09 43.23-13.92 41.84-6.77C41.02-2.58 42.90 0.57 47.35 0.57C50.00 0.57 52.83-1.27 54.69-2.93C54.59-2.44 54.33 0 54.33 0ZM93.25-22.42L87.65-22.42C87.65-22.42 84.82-15.38 84.35-14.31C84.29-14.19 82.63-10.09 81.68-7.22C81.62-7.22 81.64-7.22 81.58-7.22C81.66-10.07 81.56-14.91 81.56-15.20C81.52-16.22 81.29-22.42 81.29-22.42L76.39-22.42L73.01-14.27C72.04-11.96 70.38-7.69 70.20-7.22L70.10-7.22L70.24-12.18C70.26-12.98 69.95-22.42 69.95-22.42L64.39-22.42L66.28 0L71.22 0C71.22 0 74.48-7.61 74.94-8.70C75.06-8.96 76.66-12.65 77.23-14.48C77.29-14.48 77.29-14.48 77.36-14.48C77.31-12.41 77.38-9.25 77.38-9.11C77.44-8.04 77.81 0 77.81 0L82.67 0ZM111.32-9.80C111.62-10.95 111.71-11.16 111.77-11.48C112.77-16.78 111.62-22.74 104.61-22.74C97.78-22.74 93.31-17.49 91.94-10.50C90.93-5.41 92.49 0.57 99.50 0.57C104.22 0.57 107.13-0.70 110.25-4.72L106.95-7.05C104.69-4.33 102.72-3.92 100.57-3.92C97.47-3.92 96.22-6.09 96.90-9.80ZM97.82-13.37C98.75-16.00 100.80-18.19 103.46-18.19C106.33-18.19 107.34-16.16 107.07-13.37ZM130.72-21.84C129.83-22.52 128.50-22.89 127.56-22.80C125.02-22.56 123.50-21.10 121.90-19.42L122.10-22.42L117.78-22.42L113.41 0L118.49 0L121.26-14.21C122.76-16.53 124.24-17.88 126.29-17.88C126.76-17.88 127.44-17.68 128.44-17.29Z" stroke="none" fill="#00a0e9" stroke-width="1px"></path></g> <!----></g> <!----></g></g></svg>